<?xml version="1.0" standalone="no"?>
<!DOCTYPE svg PUBLIC "-//W3C//DTD SVG 20010904//EN"
 "http://www.w3.org/TR/2001/REC-SVG-20010904/DTD/svg10.dtd">
<svg version="1.0" xmlns="http://www.w3.org/2000/svg"
 width="242.000000pt" height="227.000000pt" viewBox="0 0 242.000000 227.000000"
 preserveAspectRatio="xMidYMid meet">
<metadata>
Created by potrace 1.15, written by Peter Selinger 2001-2017
</metadata>
<g transform="translate(0.000000,227.000000) scale(0.100000,-0.100000)"
fill="#000000" stroke="none">
<path d="M929 2001 c-22 -17 -24 -27 -24 -98 l0 -78 35 0 35 0 3 63 3 62 219
0 219 0 3 -62 3 -63 35 0 35 0 0 78 c0 121 9 117 -295 117 -229 0 -250 -1
-271 -19z"/>
<path d="M840 1595 l0 -195 360 0 360 0 0 195 c0 227 -2 230 -85 145 l-49 -50
47 0 47 0 0 -130 0 -130 -320 0 -320 0 0 130 c0 116 -2 130 -17 130 -12 0 -2
15 32 50 l49 50 -52 0 -52 0 0 -195z"/>
<path d="M940 1595 l0 -35 260 0 260 0 0 35 0 35 -260 0 -260 0 0 -35z"/>
<path d="M940 1495 l0 -35 263 2 262 3 3 33 3 32 -265 0 -266 0 0 -35z"/>
<path d="M907 1364 c-11 -11 -8 -177 3 -211 6 -17 22 -35 36 -42 35 -15 474
-15 509 1 34 15 47 64 43 168 l-3 85 -35 0 -35 0 -3 -62 -3 -63 -219 0 -219 0
-3 63 c-3 61 -3 62 -33 65 -17 2 -34 0 -38 -4z"/>
<path d="M382 949 c-54 -27 -97 -79 -111 -134 -11 -43 -6 -70 32 -195 l14 -45
-58 -27 c-53 -24 -59 -30 -59 -57 0 -24 5 -32 24 -37 31 -7 86 18 120 57 27
29 59 38 72 18 3 -6 15 -9 25 -6 11 3 19 1 19 -4 0 -5 12 -16 26 -25 23 -16
28 -16 57 -2 27 13 34 13 45 2 18 -20 34 -17 76 11 31 21 37 22 32 8 -37 -123
-21 -178 43 -143 19 10 51 77 51 108 1 17 70 58 70 41 0 -5 12 -16 26 -25 23
-16 28 -16 60 -1 19 9 34 13 34 8 0 -16 38 -23 62 -10 13 6 33 20 44 31 21 19
21 19 17 -6 -9 -44 31 -33 61 17 14 23 37 56 51 72 l27 30 -20 -35 c-33 -58
-35 -77 -13 -99 27 -27 40 -26 85 4 20 13 36 20 36 15 0 -5 12 -17 26 -26 23
-16 28 -16 60 -1 19 9 34 13 34 8 0 -16 38 -23 62 -10 13 6 32 20 44 30 20 19
21 19 42 -11 28 -38 48 -38 100 0 38 27 42 28 42 10 0 -18 26 -40 49 -40 6 0
26 14 46 31 25 22 35 27 35 16 0 -21 38 -47 69 -47 38 0 103 37 131 74 26 36
40 38 40 5 0 -12 -10 -23 -26 -29 -17 -7 -24 -16 -22 -28 5 -24 76 -22 111 4
31 22 36 54 8 54 -24 0 -45 54 -31 80 24 46 1 98 -38 86 -23 -8 -42 -47 -36
-73 12 -45 -118 -147 -156 -123 -18 11 -6 52 26 89 29 35 44 40 37 12 -8 -30
18 -37 39 -11 22 27 23 53 3 70 -27 22 -67 0 -152 -82 -89 -87 -97 -86 -62 7
11 31 18 62 15 70 -9 25 -35 17 -52 -17 -18 -35 -112 -138 -125 -138 -13 0
-11 48 3 87 9 26 18 33 38 33 14 0 31 5 37 11 14 14 6 39 -12 39 -10 0 -9 10
4 45 12 34 13 47 4 56 -20 20 -41 3 -64 -50 -19 -45 -25 -51 -51 -51 -35 0
-49 -27 -23 -46 16 -12 16 -15 -13 -51 -36 -46 -70 -78 -77 -71 -2 2 11 30 31
61 37 59 39 87 7 87 -11 0 -31 -21 -51 -54 -31 -52 -74 -96 -93 -96 -5 0 -9
10 -9 23 0 15 11 29 33 41 71 41 99 88 61 103 -23 9 -83 -26 -107 -62 -26 -39
-110 -110 -115 -97 -2 6 11 35 27 64 35 61 38 83 15 92 -26 10 -32 8 -70 -26
-28 -25 -35 -28 -26 -12 9 18 8 24 -4 35 -14 12 -19 10 -35 -11 -71 -92 -121
-150 -130 -150 -5 0 6 29 26 65 37 66 38 85 5 85 -12 0 -29 -19 -48 -54 -29
-50 -73 -96 -93 -96 -5 0 -9 14 -9 31 0 16 3 28 8 25 4 -2 29 11 55 30 49 35
61 69 31 81 -23 9 -83 -26 -107 -62 -11 -16 -36 -42 -55 -58 -33 -25 -37 -26
-46 -10 -5 10 -13 21 -18 24 -5 3 11 29 35 58 89 105 122 202 70 209 -28 4
-65 -44 -107 -140 -29 -68 -124 -188 -148 -188 -5 0 7 29 27 65 37 66 38 85 5
85 -12 0 -29 -19 -48 -54 -29 -50 -73 -96 -93 -96 -5 0 -9 14 -9 31 0 16 3 28
8 25 4 -2 29 11 55 30 49 35 61 69 31 81 -23 9 -83 -26 -107 -62 -28 -43 -67
-71 -77 -55 -5 8 -17 10 -34 6 -21 -5 -26 -3 -26 12 0 10 -9 45 -20 77 -36
106 -22 172 47 220 44 29 110 35 120 9 6 -15 -12 -58 -39 -96 -9 -13 -10 -20
-1 -29 17 -17 50 6 73 51 26 50 25 90 0 118 -28 29 -99 30 -158 1z"/>
</g>
</svg>
