<?xml version="1.0" standalone="no"?>
<!DOCTYPE svg PUBLIC "-//W3C//DTD SVG 20010904//EN"
 "http://www.w3.org/TR/2001/REC-SVG-20010904/DTD/svg10.dtd">
<svg version="1.0" xmlns="http://www.w3.org/2000/svg"
 width="275.000000pt" height="105.000000pt" viewBox="0 0 275.000000 105.000000"
 preserveAspectRatio="xMidYMid meet">
<metadata>
Created by potrace 1.15, written by Peter Selinger 2001-2017
</metadata>
<g transform="translate(0.000000,105.000000) scale(0.100000,-0.100000)"
fill="#000000" stroke="none">
<path d="M477 705 c-142 -52 -208 -218 -141 -353 63 -126 211 -177 336 -114
l54 27 34 -23 c23 -15 48 -22 82 -22 58 0 63 21 6 25 -41 2 -98 23 -98 36 0 4
11 25 25 45 135 198 -73 461 -298 379z m188 -35 c77 -32 125 -112 125 -205 0
-132 -93 -225 -225 -225 -134 0 -228 93 -228 225 -1 173 164 276 328 205z"/>
<path d="M526 649 c-50 -39 -22 -119 42 -119 60 0 89 84 43 122 -30 23 -52 23
-85 -3z"/>
<path d="M646 508 c-35 -49 -7 -108 50 -108 41 0 74 29 74 65 0 59 -91 90
-124 43z"/>
<path d="M1010 536 c0 -48 13 -72 50 -91 17 -9 30 -20 30 -25 0 -16 -30 -11
-36 5 -9 22 -44 19 -44 -4 0 -30 47 -61 90 -61 l38 0 -5 43 c-5 40 -11 48 -72
99 -12 10 -12 13 -1 16 7 3 19 -3 25 -12 18 -25 45 -20 45 8 0 32 -22 47 -75
54 l-45 5 0 -37z"/>
<path d="M1192 560 c-29 -12 -30 -18 -34 -118 l-3 -83 25 3 c22 3 25 7 22 36
-3 24 0 32 13 32 13 0 16 -8 13 -32 -3 -29 0 -33 22 -36 l25 -3 0 106 0 105
-30 -1 c-16 0 -40 -4 -53 -9z"/>
<path d="M1300 465 c0 -104 0 -105 24 -105 22 0 24 3 19 40 -6 39 -5 40 26 40
26 0 31 4 31 25 0 21 -5 25 -30 25 -21 0 -30 5 -30 16 0 13 8 15 35 12 33 -4
35 -2 35 24 0 27 -1 28 -55 28 l-55 0 0 -105z"/>
<path d="M1463 560 c-33 -14 -43 -42 -43 -124 0 -74 1 -76 25 -76 22 0 25 4
25 35 0 26 4 35 16 35 13 0 15 -7 11 -35 -5 -33 -4 -35 21 -35 l27 0 0 105 0
105 -30 -1 c-16 0 -40 -4 -52 -9z"/>
<path d="M1565 465 l0 -105 26 0 c26 0 26 2 22 48 l-4 47 23 -45 c15 -30 30
-46 46 -48 22 -3 22 -2 22 102 l0 106 -25 0 c-23 0 -25 -4 -25 -42 l0 -43 -20
43 c-14 32 -25 42 -42 42 -23 0 -23 -2 -23 -105z"/>
<path d="M1746 549 c-24 -19 -26 -26 -26 -105 0 -83 0 -84 25 -84 22 0 25 4
25 35 0 26 4 35 16 35 13 0 15 -7 11 -35 -5 -32 -4 -35 19 -35 24 0 24 0 24
105 l0 105 -34 0 c-19 0 -45 -9 -60 -21z"/>
<path d="M2103 559 c-30 -11 -43 -40 -43 -97 0 -61 23 -94 65 -94 30 0 55 24
55 54 0 22 -35 25 -44 3 -12 -33 -26 -12 -26 40 0 52 14 73 26 40 9 -22 44
-19 44 3 0 39 -39 65 -77 51z"/>
<path d="M2223 558 c-47 -23 -41 -75 13 -108 35 -22 44 -40 20 -40 -8 0 -16 7
-20 15 -3 8 -15 15 -26 15 -30 0 -23 -37 13 -64 26 -19 30 -19 55 -5 19 10 28
24 30 46 3 26 -3 36 -32 58 -38 29 -46 45 -21 45 8 0 15 -7 15 -15 0 -8 9 -15
20 -15 14 0 20 7 20 24 0 39 -47 63 -87 44z"/>
</g>
</svg>
